<mxfile host="app.diagrams.net" agent="Mozilla/5.0 (Macintosh; Intel Mac OS X 10_15_7) AppleWebKit/605.1.15 (KHTML, like Gecko) Version/17.6 Safari/605.1.15" version="24.7.14">
  <diagram name="Page-1" id="veRpo0tACFwU-HL0MGSM">
    <mxGraphModel dx="3695" dy="2829" grid="1" gridSize="10" guides="1" tooltips="1" connect="1" arrows="1" fold="1" page="1" pageScale="1" pageWidth="827" pageHeight="1169" math="0" shadow="0">
      <root>
        <mxCell id="0" />
        <mxCell id="1" parent="0" />
        <mxCell id="VRKETtg9gcUAPWKbDu3B-1" value="отдел&lt;div&gt;ЗАКУПКИ&lt;/div&gt;" style="ellipse;whiteSpace=wrap;html=1;aspect=fixed;" parent="1" vertex="1">
          <mxGeometry x="-90" y="-550" width="150" height="150" as="geometry" />
        </mxCell>
        <mxCell id="VRKETtg9gcUAPWKbDu3B-2" value="отдел&lt;div&gt;СКЛАД&lt;/div&gt;" style="ellipse;whiteSpace=wrap;html=1;aspect=fixed;" parent="1" vertex="1">
          <mxGeometry x="440" y="-220" width="150" height="150" as="geometry" />
        </mxCell>
        <mxCell id="t9qQJqirAUy6IB2mjL8N-2" style="edgeStyle=orthogonalEdgeStyle;rounded=0;orthogonalLoop=1;jettySize=auto;html=1;entryX=0;entryY=0.5;entryDx=0;entryDy=0;exitX=0.5;exitY=1;exitDx=0;exitDy=0;" edge="1" parent="1" source="VRKETtg9gcUAPWKbDu3B-3" target="VRKETtg9gcUAPWKbDu3B-6">
          <mxGeometry relative="1" as="geometry" />
        </mxCell>
        <mxCell id="t9qQJqirAUy6IB2mjL8N-3" style="edgeStyle=orthogonalEdgeStyle;rounded=0;orthogonalLoop=1;jettySize=auto;html=1;entryX=0;entryY=0.5;entryDx=0;entryDy=0;exitX=0.5;exitY=1;exitDx=0;exitDy=0;" edge="1" parent="1" source="VRKETtg9gcUAPWKbDu3B-3" target="VRKETtg9gcUAPWKbDu3B-7">
          <mxGeometry relative="1" as="geometry" />
        </mxCell>
        <mxCell id="t9qQJqirAUy6IB2mjL8N-4" style="edgeStyle=orthogonalEdgeStyle;rounded=0;orthogonalLoop=1;jettySize=auto;html=1;entryX=0;entryY=0.5;entryDx=0;entryDy=0;exitX=0.5;exitY=1;exitDx=0;exitDy=0;" edge="1" parent="1" source="VRKETtg9gcUAPWKbDu3B-3" target="VRKETtg9gcUAPWKbDu3B-18">
          <mxGeometry relative="1" as="geometry" />
        </mxCell>
        <mxCell id="VRKETtg9gcUAPWKbDu3B-3" value="отдел&lt;div&gt;ЛОГИСТИКА&lt;/div&gt;" style="ellipse;whiteSpace=wrap;html=1;aspect=fixed;" parent="1" vertex="1">
          <mxGeometry x="440" y="20" width="150" height="150" as="geometry" />
        </mxCell>
        <mxCell id="VRKETtg9gcUAPWKbDu3B-5" value="Поставщики" style="rounded=1;whiteSpace=wrap;html=1;" parent="1" vertex="1">
          <mxGeometry x="-640" y="-500" width="120" height="60" as="geometry" />
        </mxCell>
        <mxCell id="VRKETtg9gcUAPWKbDu3B-13" value="ПРОДАЖИ" style="swimlane;" parent="1" vertex="1">
          <mxGeometry x="-280" y="310" width="200" height="350" as="geometry">
            <mxRectangle x="240" y="780" width="100" height="30" as="alternateBounds" />
          </mxGeometry>
        </mxCell>
        <mxCell id="VRKETtg9gcUAPWKbDu3B-15" value="Маркетплейсы" style="whiteSpace=wrap;html=1;" parent="VRKETtg9gcUAPWKbDu3B-13" vertex="1">
          <mxGeometry x="40" y="50" width="120" height="60" as="geometry" />
        </mxCell>
        <mxCell id="VRKETtg9gcUAPWKbDu3B-14" value="Сайт" style="whiteSpace=wrap;html=1;" parent="VRKETtg9gcUAPWKbDu3B-13" vertex="1">
          <mxGeometry x="40" y="120" width="120" height="60" as="geometry" />
        </mxCell>
        <mxCell id="VRKETtg9gcUAPWKbDu3B-17" value="Контактный центр&lt;div&gt;(операторы)&lt;/div&gt;" style="whiteSpace=wrap;html=1;" parent="VRKETtg9gcUAPWKbDu3B-13" vertex="1">
          <mxGeometry x="40" y="260" width="120" height="60" as="geometry" />
        </mxCell>
        <mxCell id="VRKETtg9gcUAPWKbDu3B-16" value="Наши ШЦ" style="whiteSpace=wrap;html=1;" parent="VRKETtg9gcUAPWKbDu3B-13" vertex="1">
          <mxGeometry x="40" y="190" width="120" height="60" as="geometry" />
        </mxCell>
        <mxCell id="VRKETtg9gcUAPWKbDu3B-20" value="Доставка" style="swimlane;" parent="1" vertex="1">
          <mxGeometry x="720" y="310" width="200" height="330" as="geometry" />
        </mxCell>
        <mxCell id="VRKETtg9gcUAPWKbDu3B-6" value="Партнерские пункты выдачи" style="rounded=1;whiteSpace=wrap;html=1;" parent="VRKETtg9gcUAPWKbDu3B-20" vertex="1">
          <mxGeometry x="40" y="40" width="120" height="60" as="geometry" />
        </mxCell>
        <mxCell id="VRKETtg9gcUAPWKbDu3B-7" value="Наши ШЦ" style="rounded=1;whiteSpace=wrap;html=1;" parent="VRKETtg9gcUAPWKbDu3B-20" vertex="1">
          <mxGeometry x="40" y="110" width="120" height="60" as="geometry" />
        </mxCell>
        <mxCell id="VRKETtg9gcUAPWKbDu3B-18" value="Адресная&lt;div&gt;доставка&lt;/div&gt;" style="rounded=1;whiteSpace=wrap;html=1;" parent="VRKETtg9gcUAPWKbDu3B-20" vertex="1">
          <mxGeometry x="40" y="180" width="120" height="60" as="geometry" />
        </mxCell>
        <mxCell id="VRKETtg9gcUAPWKbDu3B-19" value="Регионы" style="rounded=1;whiteSpace=wrap;html=1;" parent="VRKETtg9gcUAPWKbDu3B-20" vertex="1">
          <mxGeometry x="40" y="250" width="120" height="60" as="geometry" />
        </mxCell>
        <mxCell id="VRKETtg9gcUAPWKbDu3B-22" value="отдел&lt;div&gt;БУХГАЛТЕРИЯ&lt;/div&gt;" style="ellipse;whiteSpace=wrap;html=1;aspect=fixed;" parent="1" vertex="1">
          <mxGeometry x="1060" y="-550" width="150" height="150" as="geometry" />
        </mxCell>
        <mxCell id="t9qQJqirAUy6IB2mjL8N-6" value="Возвраты от клиентов" style="rounded=1;whiteSpace=wrap;html=1;" vertex="1" parent="1">
          <mxGeometry x="940" y="30" width="120" height="60" as="geometry" />
        </mxCell>
        <mxCell id="t9qQJqirAUy6IB2mjL8N-7" style="edgeStyle=orthogonalEdgeStyle;rounded=0;orthogonalLoop=1;jettySize=auto;html=1;entryX=0.5;entryY=1;entryDx=0;entryDy=0;" edge="1" parent="1" source="VRKETtg9gcUAPWKbDu3B-6" target="t9qQJqirAUy6IB2mjL8N-6">
          <mxGeometry relative="1" as="geometry" />
        </mxCell>
        <mxCell id="t9qQJqirAUy6IB2mjL8N-11" value="" style="endArrow=none;html=1;rounded=0;" edge="1" parent="1">
          <mxGeometry width="50" height="50" relative="1" as="geometry">
            <mxPoint x="1520" y="474.44444444444446" as="sourcePoint" />
            <mxPoint x="1520" y="-810" as="targetPoint" />
          </mxGeometry>
        </mxCell>
        <mxCell id="t9qQJqirAUy6IB2mjL8N-12" value="AS IS" style="text;strokeColor=none;fillColor=none;align=center;verticalAlign=middle;spacingLeft=4;spacingRight=4;overflow=hidden;points=[[0,0.5],[1,0.5]];portConstraint=eastwest;rotatable=0;whiteSpace=wrap;html=1;fontSize=59;" vertex="1" parent="1">
          <mxGeometry x="350" y="-1090" width="220" height="70" as="geometry" />
        </mxCell>
      </root>
    </mxGraphModel>
  </diagram>
</mxfile>
